:SAMPLES-PER-SECOND 30
:FULLY-SPECIFIED
:DEGREES
79
root  10.1998224 39.0382211 -11.73293346 -3.492360115 -49.59590149 3.736310005
lfemur  -22.40680313 -1.028960228 -7.420328617
ltibia  -1.491570742e-006 -8.364404493e-007 60.09500885
lfoot  5.521815751e-007 -9.292012215 -2.210740089
ltoes  -4.250644065 -19.5611806 -102.515957
rfemur  -11.88020229 18.88949966 6.65157938
rtibia  -8.727266732e-007 2.533748784e-007 52.44120407
rfoot  -2.316020982e-006 -22.11750221 -8.685351372
rtoes  5.373923086 19.29304026 -105.8922705
lowerback  7.73183012 1.478510022 -1.854370117
upperback  2.862610102 1.775370002 -0.661074996
thorax  -1.411180019 0.8641859889 0.2040379941
rclavicle  0 -9.442270133e-015 7.951389973e-016
rhumerus  20.28050041 8.834178925 -72.95159912
rradius  -7.782816926e-012 0.001642658608 144.8730011
rwrist  0.002739921212 0.003270594636 -21.66460037
rthumb  -92.93752616 -24.25625642 -97.11982154
rhand  -7.920061211e-032 -33.2840004 9.303460121
rfingers  -90 -7.125020027 -90
lclavicle  0 -9.442270133e-015 7.951389973e-016
lhumerus  16.97719955 -6.014230251 64.77030182
lradius  1.032089952e-011 -0.002112276852 139.7940063
lwrist  1.816137865e-011 1.409039812e-011 11.54889965
lthumb  89.89689403 5.08795885 91.16245106
lhand  -1.496451383e-031 -27.76390076 20.11240005
lfingers  90 7.125020027 -90
lowerneck  -1.049170017 6.12154007 -5.724289894
upperneck  22.57600021 6.999239922 8.002000809
head  6.482699871 3.408299923 3.905319929
80
root  10.14868894 38.83266599 -11.84233343 -3.785979986 -49.33940125 3.863209963
lfemur  -22.16509438 -0.60331738 -7.692093372
ltibia  -1.491570742e-006 -8.364404493e-007 61.04398727
lfoot  5.521815751e-007 -10.63319397 -0.9648453593
ltoes  -4.250644065 -19.5611806 -102.515957
rfemur  -11.34159565 19.11030006 6.7439785
rtibia  -8.727266732e-007 2.533748784e-007 52.33578873
rfoot  -2.316020982e-006 -23.58229256 -9.230898857
rtoes  5.373923086 19.29304026 -105.8922705
lowerback  7.924779892 1.401479959 -2.119029999
upperback  2.731820107 1.644600034 -0.7540900111
thorax  -1.654919982 0.8011490107 0.2615549862
rclavicle  0 -9.442270133e-015 7.951389973e-016
rhumerus  20.14150238 9.09869957 -73.15650177
rradius  -7.782816926e-012 0.001642658608 144.8899994
rwrist  0.002739921212 0.003270594636 -21.16909981
rthumb  -92.93752616 -24.25625642 -97.11982154
rhand  -7.920061211e-032 -33.2840004 9.303460121
rfingers  -90 -7.125020027 -90
lclavicle  0 -9.442270133e-015 7.951389973e-016
lhumerus  16.37470055 -6.343699455 64.72239685
lradius  1.032090038e-011 -0.00204664073 140.1430054
lwrist  1.816137865e-011 1.409039812e-011 11.19729996
lthumb  89.89689403 5.08795885 91.16245106
lhand  -1.496451383e-031 -27.76390076 20.11240005
lfingers  90 7.125020027 -90
lowerneck  -1.34660995 6.032080173 -5.721930027
upperneck  23.36840057 6.838050365 8.072349548
head  6.798419952 3.327049971 3.964750051
81
root  10.1128 38.60688998 -11.94848789 -4.051040173 -48.98669815 4.010200024
lfemur  -22.04519653 -0.1750314087 -7.91623354
ltibia  -1.491570742e-006 -8.364404493e-007 61.84189224
lfoot  5.521815751e-007 -11.84249592 -0.5039337873
ltoes  -4.250644065 -19.5611806 -102.515957
rfemur  -10.88209057 18.91320229 6.703806877
rtibia  -8.727266732e-007 2.533748784e-007 52.27508545
rfoot  -2.316020982e-006 -25.24839401 -8.671118736
rtoes  5.373923086 19.29304026 -105.8922705
lowerback  8.074959755 1.278010011 -2.361530066
upperback  2.606820107 1.453979969 -0.8313210011
thorax  -1.866829991 0.7088080049 0.3307330012
rclavicle  0 -9.442270133e-015 7.951389973e-016
rhumerus  19.80020142 9.361440659 -73.18039703
rradius  -7.782816926e-012 0.001642658608 145.003006
rwrist  0.002739921212 0.003270594636 -20.71759987
rthumb  -92.93752616 -24.25625642 -97.11982154
rhand  -7.920061211e-032 -33.2840004 9.303460121
rfingers  -90 -7.125020027 -90
lclavicle  0 -9.442270133e-015 7.951389973e-016
lhumerus  15.6512022 -6.659709454 64.7798996
lradius  1.032090038e-011 -0.001980664209 140.5709991
lwrist  1.816137865e-011 1.409039812e-011 10.85060024
lthumb  89.89689403 5.08795885 91.16245106
lhand  -1.496451383e-031 -27.76390076 20.11240005
lfingers  90 7.125020027 -90
lowerneck  -1.629040003 5.968080044 -5.799789906
upperneck  24.16329956 6.722960472 8.114629745
head  7.110569954 3.258160114 4.030370235
82
root  10.08253323 38.37888823 -12.04719994 -4.248849869 -48.62900162 4.078460217
lfemur  -21.98600197 0.1630585641 -8.036917686
ltibia  -1.491570742e-006 -8.364404493e-007 62.47960281
lfoot  5.521815751e-007 -13.3237009 -0.2942491174
ltoes  -4.250644065 -19.5611806 -102.515957
rfemur  -10.47740364 18.45459938 6.673212051
rtibia  -8.727266732e-007 2.533748784e-007 52.35380554
rfoot  -2.316020982e-006 -26.87599945 -7.660259724
rtoes  5.373923086 19.29304026 -105.8922705
lowerback  8.146140099 1.163709998 -2.599980116
upperback  2.535900116 1.279680014 -0.8469129801
thorax  -1.979910016 0.6237429976 0.4629400074
rclavicle  0 -9.442270133e-015 7.951389973e-016
rhumerus  19.39740181 9.571900368 -73.12139893
rradius  -7.782816926e-012 0.001642658608 145.1920013
rwrist  0.002739921212 0.003270594636 -20.36669922
rthumb  -92.93752616 -24.25625642 -97.11982154
rhand  -7.920061211e-032 -33.2840004 9.303460121
rfingers  -90 -7.125020027 -90
lclavicle  0 -9.442270133e-015 7.951389973e-016
lhumerus  14.84419918 -7.043010235 64.98600006
lradius  1.032090038e-011 -0.001914307592 141.0509949
lwrist  1.816137865e-011 1.409039812e-011 10.23120022
lthumb  89.89689403 5.08795885 91.16245106
lhand  -1.496451383e-031 -27.76390076 20.11240005
lfingers  90 7.125020027 -90
lowerneck  -1.841339946 5.877810001 -5.836269855
upperneck  24.90309906 6.606749535 7.964690685
head  7.407000065 3.174479961 4.021830082
